<?xml version="1.0" encoding="UTF-8"?><svg id="Capa_1" xmlns="http://www.w3.org/2000/svg" viewBox="0 0 1583.37 611.41"><defs><style>.cls-1{fill:#f1c40f;}.cls-2,.cls-3{fill:#34495e;}.cls-4{fill:#fff;font-size:280px;letter-spacing:-.05em;}.cls-4,.cls-3{font-family:CodecPro-Regular, 'Codec Pro';}.cls-3{font-size:424.01px;}</style></defs><text class="cls-3" transform="translate(484.25 352.79) rotate(-180) scale(1 -1)"><tspan x="0" y="0">e</tspan></text><rect class="cls-2" x="480.37" y="83.3" width="1103" height="300"/><text class="cls-4" transform="translate(491.32 334.51)"><tspan x="0" y="0">solution</tspan></text><text class="cls-3" transform="translate(0 353.65)"><tspan x="0" y="0">a</tspan></text><path class="cls-1" d="M1531,153.31l31.55,23.8-25.97,34.42-10.18-7.68c-2.68-2.02-5.13-1.28-6.29,.25-.72,.95-1.01,2.26-.81,3.68,.23,1.45,.5,2.13-.36,3.27-1.02,1.35-4.02,2.15-6.8,.06-2.77-2.09-2.83-5.2-1.81-6.55,.86-1.14,1.58-1.06,3.04-1.24,1.42-.2,2.6-.83,3.32-1.79,1.16-1.53,1.18-4.1-1.49-6.12l-10.19-7.68,9.85-13.05c1.16-1.53,1.35-.97,1.54,.67,.13,1.28,.34,3.22,2.57,4.91,2.98,2.25,8.35,1.78,11.58-2.51,3.24-4.29,2.22-9.58-.76-11.83-2.23-1.68-4.15-1.35-5.42-1.13-1.63,.27-2.22,.23-1.07-1.3,0,0,7.68-10.18,7.68-10.18Zm-50.21,16.14c1.53,1.16,1.56,.56,1.29-1.07-.22-1.27-.55-3.19,1.13-5.42,2.25-2.98,7.54-4,11.83-.76,4.29,3.24,4.76,8.6,2.51,11.58-1.68,2.23-3.62,2.44-4.9,2.57-1.63,.19-2.21,.38-.67,1.54l10.18,7.68,9.85-13.05c2.02-2.67,4.59-2.65,6.12-1.49,.95,.72,1.59,1.9,1.79,3.32,.18,1.47,.1,2.19,1.24,3.05,1.35,1.02,4.46,.96,6.55-1.81,2.09-2.77,1.29-5.78-.06-6.8-1.14-.86-1.81-.59-3.27-.35-1.42,.2-2.73-.09-3.68-.81-1.53-1.16-2.26-3.62-.25-6.29l7.68-10.18-34.42-25.97-25.97,34.42,13.05,9.85Zm3.09,40.36c1.15-1.53,.56-1.56-1.07-1.3-1.27,.22-3.19,.56-5.42-1.13-2.98-2.25-4-7.54-.76-11.83,3.24-4.29,8.6-4.76,11.58-2.51,2.23,1.68,2.44,3.62,2.57,4.91,.19,1.64,.38,2.2,1.54,.67l7.68-10.18-10.18-7.68c-2.68-2.02-2.65-4.58-1.49-6.12,.72-.95,1.9-1.59,3.32-1.79,1.46-.18,2.18-.1,3.04-1.24,1.02-1.35,.96-4.46-1.81-6.55s-5.78-1.29-6.8,.06c-.86,1.14-.58,1.81-.35,3.27,.2,1.42-.09,2.73-.81,3.68-1.16,1.53-3.62,2.26-6.29,.25l-13.05-9.85-23.8,31.55,34.42,25.97s7.68-10.18,7.68-10.18Zm40.36-3.09c-1.53-1.16-1.56-.56-1.29,1.07,.22,1.27,.55,3.19-1.13,5.42-2.25,2.98-7.54,4-11.83,.76-4.29-3.24-4.76-8.6-2.51-11.58,1.68-2.23,3.62-2.44,4.9-2.57,1.63-.19,2.21-.38,.67-1.54l-10.18-7.68-7.68,10.18c-2.02,2.67-4.59,2.65-6.12,1.49-.95-.72-1.59-1.9-1.79-3.32-.18-1.47-.1-2.19-1.24-3.05-1.35-1.02-4.46-.96-6.55,1.81-2.09,2.77-1.29,5.78,.06,6.8,1.14,.86,1.81,.59,3.27,.35,1.42-.2,2.73,.09,3.68,.81,1.53,1.16,2.26,3.62,.24,6.29l-7.68,10.18,31.55,23.8,23.8-31.55s-10.18-7.68-10.18-7.68Z"/></svg>