<?xml version="1.0" encoding="utf-8"?>
<!-- Generator: Adobe Illustrator 26.5.0, SVG Export Plug-In . SVG Version: 6.00 Build 0)  -->
<svg version="1.1" id="Capa_1" xmlns="http://www.w3.org/2000/svg" xmlns:xlink="http://www.w3.org/1999/xlink" x="0px" y="0px"
	 viewBox="0 0 1664 300" style="enable-background:new 0 0 1664 300;" xml:space="preserve">
<style type="text/css">
	.st0{fill:#34495E;}
	.st1{font-family:'CodecPro-Regular';}
	.st2{font-size:424.01px;}
	.st3{fill:#FFFFFF;}
	.st4{font-size:280px;}
	.st5{letter-spacing:-14;}
	.st6{fill:#F1C40F;}
</style>
<text transform="matrix(-1 0 0 1 484.25 269.4901)" class="st0 st1 st2">e</text>
<rect x="480.4" class="st0" width="1183.6" height="300"/>
<text transform="matrix(1 0 0 1 491.32 251.21)" class="st3 st1 st4 st5">solution</text>
<text transform="matrix(1 0 0 1 0 270.35)" class="st0 st1 st2">a</text>
<path class="st6" d="M1617.8,35l31.6,23.8l-26,34.4l-10.2-7.7c-2.7-2-5.1-1.3-6.3,0.2c-0.7,0.9-1,2.3-0.8,3.7
	c0.2,1.4,0.5,2.1-0.4,3.3c-1,1.4-4,2.1-6.8,0.1c-2.8-2.1-2.8-5.2-1.8-6.6c0.9-1.1,1.6-1.1,3-1.2c1.4-0.2,2.6-0.8,3.3-1.8
	c1.2-1.5,1.2-4.1-1.5-6.1l-10.2-7.7l9.8-13.1c1.2-1.5,1.3-1,1.5,0.7c0.1,1.3,0.3,3.2,2.6,4.9c3,2.2,8.3,1.8,11.6-2.5
	c3.2-4.3,2.2-9.6-0.8-11.8c-2.2-1.7-4.2-1.4-5.4-1.1c-1.6,0.3-2.2,0.2-1.1-1.3L1617.8,35L1617.8,35z M1567.6,51.2
	c1.5,1.2,1.6,0.6,1.3-1.1c-0.2-1.3-0.6-3.2,1.1-5.4c2.2-3,7.5-4,11.8-0.8c4.3,3.2,4.8,8.6,2.5,11.6c-1.7,2.2-3.6,2.4-4.9,2.6
	c-1.6,0.2-2.2,0.4-0.7,1.5l10.2,7.7l9.8-13.1c2-2.7,4.6-2.6,6.1-1.5c0.9,0.7,1.6,1.9,1.8,3.3c0.2,1.5,0.1,2.2,1.2,3.1
	c1.3,1,4.5,1,6.6-1.8c2.1-2.8,1.3-5.8-0.1-6.8c-1.1-0.9-1.8-0.6-3.3-0.4c-1.4,0.2-2.7-0.1-3.7-0.8c-1.5-1.2-2.3-3.6-0.2-6.3
	l7.7-10.2l-34.4-26l-26,34.4L1567.6,51.2L1567.6,51.2z M1570.6,91.5c1.2-1.5,0.6-1.6-1.1-1.3c-1.3,0.2-3.2,0.6-5.4-1.1
	c-3-2.2-4-7.5-0.8-11.8c3.2-4.3,8.6-4.8,11.6-2.5c2.2,1.7,2.4,3.6,2.6,4.9c0.2,1.6,0.4,2.2,1.5,0.7l7.7-10.2l-10.2-7.7
	c-2.7-2-2.7-4.6-1.5-6.1c0.7-0.9,1.9-1.6,3.3-1.8c1.5-0.2,2.2-0.1,3-1.2c1-1.4,1-4.5-1.8-6.6s-5.8-1.3-6.8,0.1
	c-0.9,1.1-0.6,1.8-0.3,3.3c0.2,1.4-0.1,2.7-0.8,3.7c-1.2,1.5-3.6,2.3-6.3,0.2l-13.1-9.9l-23.8,31.6l34.4,26L1570.6,91.5L1570.6,91.5
	z M1611,88.5c-1.5-1.2-1.6-0.6-1.3,1.1c0.2,1.3,0.6,3.2-1.1,5.4c-2.2,3-7.5,4-11.8,0.8c-4.3-3.2-4.8-8.6-2.5-11.6
	c1.7-2.2,3.6-2.4,4.9-2.6c1.6-0.2,2.2-0.4,0.7-1.5l-10.2-7.7l-7.7,10.2c-2,2.7-4.6,2.6-6.1,1.5c-0.9-0.7-1.6-1.9-1.8-3.3
	c-0.2-1.5-0.1-2.2-1.2-3.1c-1.3-1-4.5-1-6.6,1.8c-2.1,2.8-1.3,5.8,0.1,6.8c1.1,0.9,1.8,0.6,3.3,0.4c1.4-0.2,2.7,0.1,3.7,0.8
	c1.5,1.2,2.3,3.6,0.2,6.3l-7.7,10.2l31.6,23.8l23.8-31.6L1611,88.5L1611,88.5z"/>
</svg>
